<svg xmlns="http://www.w3.org/2000/svg" viewBox="0 0 1200 740" font-family="Inter, system-ui, sans-serif">
  <rect width="1200" height="740" fill="#FAFAF9" />

  <!-- 헤더 -->
  <g transform="translate(60 50)">
    <text fill="#262626" font-size="24" font-weight="800">데이터 이력</text>
    <text y="28" fill="#737373" font-size="13">모든 재료의 입고·제조·폐기 기록을 한 곳에서 봐요</text>
  </g>

  <!-- 필터 + 검색 + 툴바 -->
  <g transform="translate(60 130)">
    <g>
      <rect width="84" height="36" rx="8" fill="#2563EB" />
      <text x="42" y="24" text-anchor="middle" fill="#fff" font-size="12" font-weight="800">전체 128</text>
    </g>
    <g transform="translate(96 0)">
      <rect width="72" height="36" rx="8" fill="#F5F5F5" />
      <text x="36" y="24" text-anchor="middle" fill="#737373" font-size="12" font-weight="700">입고</text>
    </g>
    <g transform="translate(180 0)">
      <rect width="116" height="36" rx="8" fill="#F5F5F5" />
      <text x="58" y="24" text-anchor="middle" fill="#737373" font-size="12" font-weight="700">제조 · 폐기</text>
    </g>
    <g transform="translate(308 0)">
      <rect width="636" height="36" rx="8" fill="#fff" stroke="#D4D4D4" />
      <text x="16" y="24" fill="#A3A3A3" font-size="12">재료·공급처·메모 검색</text>
    </g>
    <g transform="translate(956 0)">
      <rect width="84" height="36" rx="8" fill="#fff" stroke="#D4D4D4" />
      <text x="42" y="24" text-anchor="middle" fill="#525252" font-size="12" font-weight="700">▦ 컬럼</text>
    </g>
    <g transform="translate(1052 0)">
      <rect width="88" height="36" rx="8" fill="#fff" stroke="#D4D4D4" />
      <text x="44" y="24" text-anchor="middle" fill="#525252" font-size="12" font-weight="700">↓ CSV</text>
    </g>
  </g>

  <!-- 테이블 -->
  <g transform="translate(60 200)">
    <rect width="1080" height="440" rx="14" fill="#fff" stroke="#E5E5E5" />

    <!-- 헤더 행 -->
    <rect width="1080" height="44" rx="14" fill="#FAFAF9" />
    <line x1="0" y1="44" x2="1080" y2="44" stroke="#E5E5E5" />
    <g fill="#737373" font-size="10" font-weight="800" letter-spacing="1">
      <text x="22" y="28">시간</text>
      <text x="180" y="28">재료</text>
      <text x="400" y="28">카테고리</text>
      <text x="600" y="28">타입</text>
      <text x="744" y="28" text-anchor="end">수량</text>
      <text x="800" y="28">공급처</text>
      <text x="990" y="28" text-anchor="end">금액</text>
      <text x="1060" y="28" text-anchor="end">메모</text>
    </g>

    <!-- 행들 (각 56 높이) -->
    <g transform="translate(0 44)">
      <!-- Row 1 — 제조 -->
      <g>
        <text x="22" y="34" fill="#525252" font-size="12" font-weight="600">26-06-27 19:38</text>
        <text x="180" y="34" fill="#262626" font-size="13" font-weight="800">버번 위스키</text>
        <text x="400" y="34" fill="#737373" font-size="12">위스키 · 버번</text>
        <g transform="translate(600 18)">
          <rect width="48" height="20" rx="6" fill="#F5F5F5" />
          <text x="24" y="14" text-anchor="middle" fill="#737373" font-size="10" font-weight="800">제조</text>
        </g>
        <text x="744" y="34" text-anchor="end" fill="#DC2626" font-size="12" font-weight="800">−60 ml</text>
        <text x="800" y="34" fill="#A3A3A3" font-size="12">—</text>
        <text x="990" y="34" text-anchor="end" fill="#A3A3A3" font-size="12">—</text>
        <text x="1060" y="34" text-anchor="end" fill="#737373" font-size="11">올드 패션드</text>
        <line x1="0" y1="56" x2="1080" y2="56" stroke="#F5F5F5" />
      </g>
      <!-- Row 2 — 제조 -->
      <g transform="translate(0 56)">
        <text x="22" y="34" fill="#525252" font-size="12" font-weight="600">26-06-27 19:38</text>
        <text x="180" y="34" fill="#262626" font-size="13" font-weight="800">앙고스투라 비터스</text>
        <text x="400" y="34" fill="#737373" font-size="12">비터 · 앵고스튜라</text>
        <g transform="translate(600 18)">
          <rect width="48" height="20" rx="6" fill="#F5F5F5" />
          <text x="24" y="14" text-anchor="middle" fill="#737373" font-size="10" font-weight="800">제조</text>
        </g>
        <text x="744" y="34" text-anchor="end" fill="#DC2626" font-size="12" font-weight="800">−2 ml</text>
        <text x="800" y="34" fill="#A3A3A3" font-size="12">—</text>
        <text x="990" y="34" text-anchor="end" fill="#A3A3A3" font-size="12">—</text>
        <text x="1060" y="34" text-anchor="end" fill="#737373" font-size="11">올드 패션드</text>
        <line x1="0" y1="56" x2="1080" y2="56" stroke="#F5F5F5" />
      </g>
      <!-- Row 3 — 입고 -->
      <g transform="translate(0 112)">
        <text x="22" y="34" fill="#525252" font-size="12" font-weight="600">26-06-27 17:12</text>
        <text x="180" y="34" fill="#262626" font-size="13" font-weight="800">탱커레이 진</text>
        <text x="400" y="34" fill="#737373" font-size="12">진 · 런던 드라이</text>
        <g transform="translate(600 18)">
          <rect width="48" height="20" rx="6" fill="#DBEAFE" />
          <text x="24" y="14" text-anchor="middle" fill="#1D4ED8" font-size="10" font-weight="800">입고</text>
        </g>
        <text x="744" y="34" text-anchor="end" fill="#047857" font-size="12" font-weight="800">+700 ml</text>
        <text x="800" y="34" fill="#525252" font-size="12" font-weight="600">와인하우스</text>
        <text x="990" y="34" text-anchor="end" fill="#262626" font-size="12" font-weight="800">₩35,000</text>
        <text x="1060" y="34" text-anchor="end" fill="#737373" font-size="11">신규 입고</text>
        <line x1="0" y1="56" x2="1080" y2="56" stroke="#F5F5F5" />
      </g>
      <!-- Row 4 — 폐기 -->
      <g transform="translate(0 168)">
        <text x="22" y="34" fill="#525252" font-size="12" font-weight="600">26-06-27 14:08</text>
        <text x="180" y="34" fill="#262626" font-size="13" font-weight="800">드라이 베르무트</text>
        <text x="400" y="34" fill="#737373" font-size="12">베르무트</text>
        <g transform="translate(600 18)">
          <rect width="48" height="20" rx="6" fill="#FEE2E2" />
          <text x="24" y="14" text-anchor="middle" fill="#B91C1C" font-size="10" font-weight="800">폐기</text>
        </g>
        <text x="744" y="34" text-anchor="end" fill="#DC2626" font-size="12" font-weight="800">−120 ml</text>
        <text x="800" y="34" fill="#A3A3A3" font-size="12">—</text>
        <text x="990" y="34" text-anchor="end" fill="#A3A3A3" font-size="12">—</text>
        <text x="1060" y="34" text-anchor="end" fill="#737373" font-size="11">상미기한 만료</text>
        <line x1="0" y1="56" x2="1080" y2="56" stroke="#F5F5F5" />
      </g>
      <!-- Row 5 — 입고 -->
      <g transform="translate(0 224)">
        <text x="22" y="34" fill="#525252" font-size="12" font-weight="600">26-06-27 13:45</text>
        <text x="180" y="34" fill="#262626" font-size="13" font-weight="800">라임</text>
        <text x="400" y="34" fill="#737373" font-size="12">과일 · 라임</text>
        <g transform="translate(600 18)">
          <rect width="48" height="20" rx="6" fill="#DBEAFE" />
          <text x="24" y="14" text-anchor="middle" fill="#1D4ED8" font-size="10" font-weight="800">입고</text>
        </g>
        <text x="744" y="34" text-anchor="end" fill="#047857" font-size="12" font-weight="800">+12 개</text>
        <text x="800" y="34" fill="#525252" font-size="12" font-weight="600">근처 마트</text>
        <text x="990" y="34" text-anchor="end" fill="#262626" font-size="12" font-weight="800">₩9,600</text>
        <text x="1060" y="34" text-anchor="end" fill="#737373" font-size="11">—</text>
        <line x1="0" y1="56" x2="1080" y2="56" stroke="#F5F5F5" />
      </g>
      <!-- Row 6 — 제조 -->
      <g transform="translate(0 280)">
        <text x="22" y="34" fill="#525252" font-size="12" font-weight="600">26-06-27 12:30</text>
        <text x="180" y="34" fill="#262626" font-size="13" font-weight="800">토닉워터</text>
        <text x="400" y="34" fill="#737373" font-size="12">믹서 · 토닉워터</text>
        <g transform="translate(600 18)">
          <rect width="48" height="20" rx="6" fill="#F5F5F5" />
          <text x="24" y="14" text-anchor="middle" fill="#737373" font-size="10" font-weight="800">제조</text>
        </g>
        <text x="744" y="34" text-anchor="end" fill="#DC2626" font-size="12" font-weight="800">−120 ml</text>
        <text x="800" y="34" fill="#A3A3A3" font-size="12">—</text>
        <text x="990" y="34" text-anchor="end" fill="#A3A3A3" font-size="12">—</text>
        <text x="1060" y="34" text-anchor="end" fill="#737373" font-size="11">진토닉</text>
      </g>
    </g>

    <!-- 페이지네이션 -->
    <g transform="translate(0 392)">
      <line x1="0" y1="0" x2="1080" y2="0" stroke="#E5E5E5" />
      <text x="22" y="30" fill="#737373" font-size="11" font-weight="700">1 / 3 페이지 · 128건</text>
      <g transform="translate(948 14)">
        <rect width="28" height="28" rx="6" fill="#fff" stroke="#D4D4D4" />
        <text x="14" y="19" text-anchor="middle" fill="#737373" font-size="11" font-weight="800">«</text>
        <rect x="32" y="0" width="28" height="28" rx="6" fill="#fff" stroke="#D4D4D4" />
        <text x="46" y="19" text-anchor="middle" fill="#737373" font-size="11" font-weight="800">‹</text>
        <rect x="64" y="0" width="28" height="28" rx="6" fill="#fff" stroke="#D4D4D4" />
        <text x="78" y="19" text-anchor="middle" fill="#737373" font-size="11" font-weight="800">›</text>
        <rect x="96" y="0" width="28" height="28" rx="6" fill="#fff" stroke="#D4D4D4" />
        <text x="110" y="19" text-anchor="middle" fill="#737373" font-size="11" font-weight="800">»</text>
      </g>
    </g>
  </g>
</svg>
