<svg xmlns="http://www.w3.org/2000/svg" viewBox="0 0 1200 760" font-family="Inter, system-ui, sans-serif">
  <rect width="1200" height="760" fill="#FAFAF9" />

  <!-- 헤더 -->
  <g transform="translate(60 50)">
    <text fill="#262626" font-size="24" font-weight="800">주문</text>
    <text y="28" fill="#737373" font-size="13">진행 중·완료된 주문을 한 곳에서 봐요</text>
  </g>

  <!-- 필터 + 검색 -->
  <g transform="translate(60 130)">
    <g>
      <rect width="84" height="36" rx="8" fill="#2563EB" />
      <text x="42" y="24" text-anchor="middle" fill="#fff" font-size="12" font-weight="800">진행 중</text>
    </g>
    <g transform="translate(96 0)">
      <rect width="72" height="36" rx="8" fill="#F5F5F5" />
      <text x="36" y="24" text-anchor="middle" fill="#737373" font-size="12" font-weight="700">완료</text>
    </g>
    <g transform="translate(180 0)">
      <rect width="124" height="36" rx="8" fill="#F5F5F5" />
      <text x="62" y="24" text-anchor="middle" fill="#737373" font-size="12" font-weight="700">반려·미결제</text>
    </g>
    <g transform="translate(316 0)">
      <rect width="72" height="36" rx="8" fill="#F5F5F5" />
      <text x="36" y="24" text-anchor="middle" fill="#737373" font-size="12" font-weight="700">전체</text>
    </g>
    <g transform="translate(404 0)">
      <rect width="736" height="36" rx="8" fill="#fff" stroke="#D4D4D4" />
      <text x="16" y="24" fill="#A3A3A3" font-size="12">고객명·전화·테이블·메뉴 검색</text>
    </g>
  </g>

  <!-- 카드 그리드 — Row 1 -->
  <!-- Card 1 -->
  <g transform="translate(60 200)">
    <rect width="340" height="220" rx="14" fill="#fff" stroke="#E5E5E5" />
    <g>
      <text x="22" y="36" fill="#262626" font-size="15" font-weight="800">T1 홀 좌석</text>
      <g transform="translate(132 20)">
        <rect width="58" height="20" rx="10" fill="#DBEAFE" />
        <text x="29" y="14" text-anchor="middle" fill="#1D4ED8" font-size="10" font-weight="800">진행 중</text>
      </g>
      <text x="318" y="36" text-anchor="end" fill="#262626" font-size="15" font-weight="800">₩44,000</text>
    </g>
    <text x="22" y="64" fill="#525252" font-size="12" font-weight="700">김OO</text>
    <text x="22" y="84" fill="#A3A3A3" font-size="11">010-1234-5678</text>
    <text x="22" y="108" fill="#737373" font-size="11">3명 · 32분</text>
    <text x="22" y="148" fill="#A3A3A3" font-size="10">26-06-27 19:32 · 3건 · 5잔</text>
    <g transform="translate(22 162)">
      <rect width="296" height="22" rx="6" fill="#FEF3C7" />
      <text x="10" y="15" fill="#B45309" font-size="11" font-weight="800">★★★★★ "분위기 최고였어요"</text>
    </g>
  </g>

  <!-- Card 2 -->
  <g transform="translate(420 200)">
    <rect width="340" height="220" rx="14" fill="#fff" stroke="#E5E5E5" />
    <g>
      <text x="22" y="36" fill="#262626" font-size="15" font-weight="800">T2 홀 좌석</text>
      <g transform="translate(132 20)">
        <rect width="58" height="20" rx="10" fill="#DBEAFE" />
        <text x="29" y="14" text-anchor="middle" fill="#1D4ED8" font-size="10" font-weight="800">진행 중</text>
      </g>
      <text x="318" y="36" text-anchor="end" fill="#262626" font-size="15" font-weight="800">₩28,000</text>
    </g>
    <text x="22" y="64" fill="#525252" font-size="12" font-weight="700">박OO</text>
    <text x="22" y="108" fill="#737373" font-size="11">2명 · 1시간 8분</text>
    <text x="22" y="148" fill="#A3A3A3" font-size="10">26-06-27 18:54 · 2건 · 3잔</text>
  </g>

  <!-- Card 3 -->
  <g transform="translate(780 200)">
    <rect width="340" height="220" rx="14" fill="#fff" stroke="#E5E5E5" />
    <g>
      <text x="22" y="36" fill="#262626" font-size="15" font-weight="800">바석 2</text>
      <g transform="translate(92 20)">
        <rect width="58" height="20" rx="10" fill="#DBEAFE" />
        <text x="29" y="14" text-anchor="middle" fill="#1D4ED8" font-size="10" font-weight="800">진행 중</text>
      </g>
      <text x="318" y="36" text-anchor="end" fill="#262626" font-size="15" font-weight="800">₩17,000</text>
    </g>
    <text x="22" y="64" fill="#525252" font-size="12" font-weight="700">익명</text>
    <text x="22" y="108" fill="#737373" font-size="11">1명 · 18분</text>
    <text x="22" y="148" fill="#A3A3A3" font-size="10">26-06-27 20:08 · 1건 · 1잔</text>
  </g>

  <!-- Row 2 -->
  <!-- Card 4 -->
  <g transform="translate(60 440)">
    <rect width="340" height="220" rx="14" fill="#fff" stroke="#E5E5E5" />
    <g>
      <text x="22" y="36" fill="#262626" font-size="15" font-weight="800">T3 홀 좌석</text>
      <g transform="translate(132 20)">
        <rect width="58" height="20" rx="10" fill="#ECFDF5" />
        <text x="29" y="14" text-anchor="middle" fill="#047857" font-size="10" font-weight="800">완료</text>
      </g>
      <text x="318" y="36" text-anchor="end" fill="#262626" font-size="15" font-weight="800">₩86,000</text>
    </g>
    <text x="22" y="64" fill="#525252" font-size="12" font-weight="700">최OO</text>
    <text x="22" y="84" fill="#A3A3A3" font-size="11">010-5678-1234</text>
    <text x="22" y="108" fill="#737373" font-size="11">4명 · 2시간 14분</text>
    <text x="22" y="148" fill="#A3A3A3" font-size="10">26-06-27 17:42 · 5건 · 9잔 · 카드</text>
    <g transform="translate(22 162)">
      <rect width="296" height="22" rx="6" fill="#FEF3C7" />
      <text x="10" y="15" fill="#B45309" font-size="11" font-weight="800">★★★★☆ "맨해튼이 인상적"</text>
    </g>
  </g>

  <!-- Card 5 -->
  <g transform="translate(420 440)">
    <rect width="340" height="220" rx="14" fill="#fff" stroke="#E5E5E5" />
    <g>
      <text x="22" y="36" fill="#262626" font-size="15" font-weight="800">바석 1</text>
      <g transform="translate(92 20)">
        <rect width="58" height="20" rx="10" fill="#ECFDF5" />
        <text x="29" y="14" text-anchor="middle" fill="#047857" font-size="10" font-weight="800">완료</text>
      </g>
      <text x="318" y="36" text-anchor="end" fill="#262626" font-size="15" font-weight="800">₩24,000</text>
    </g>
    <text x="22" y="64" fill="#525252" font-size="12" font-weight="700">정OO</text>
    <text x="22" y="108" fill="#737373" font-size="11">1명 · 56분</text>
    <text x="22" y="148" fill="#A3A3A3" font-size="10">26-06-27 16:30 · 2건 · 2잔 · 현금</text>
    <g transform="translate(22 162)">
      <rect width="120" height="22" rx="6" fill="#FEF3C7" />
      <text x="10" y="15" fill="#B45309" font-size="11" font-weight="800">★★★★★</text>
    </g>
  </g>

  <!-- Card 6 -->
  <g transform="translate(780 440)">
    <rect width="340" height="220" rx="14" fill="#fff" stroke="#E5E5E5" />
    <g>
      <text x="22" y="36" fill="#262626" font-size="15" font-weight="800">T1 홀 좌석</text>
      <g transform="translate(132 20)">
        <rect width="74" height="20" rx="10" fill="#F5F5F5" />
        <text x="37" y="14" text-anchor="middle" fill="#737373" font-size="10" font-weight="800">미결제</text>
      </g>
      <text x="318" y="36" text-anchor="end" fill="#262626" font-size="15" font-weight="800">₩0</text>
    </g>
    <text x="22" y="64" fill="#525252" font-size="12" font-weight="700">익명</text>
    <text x="22" y="108" fill="#737373" font-size="11">1명 · 8분</text>
    <text x="22" y="148" fill="#A3A3A3" font-size="10">26-06-27 15:14 · 가짜 QR 주문 거부됨</text>
  </g>
</svg>
