<svg xmlns="http://www.w3.org/2000/svg" viewBox="0 0 1200 820" font-family="Inter, system-ui, sans-serif">
  <rect width="1200" height="820" fill="#E5E7EB" fill-opacity="0.6" />

  <!-- 모달 -->
  <g transform="translate(60 60)">
    <rect width="1080" height="700" rx="20" fill="#fff" />

    <!-- 헤더 -->
    <g>
      <text x="32" y="44" fill="#262626" font-size="22" font-weight="800">칵테일 카탈로그</text>
      <text x="32" y="68" fill="#737373" font-size="13">원하는 칵테일을 골라 내 레시피로 가져와요. 재료는 내 재고와 자동으로 매칭돼요.</text>
      <line x1="0" y1="92" x2="1080" y2="92" stroke="#E5E5E5" />
    </g>

    <!-- 필터 + 검색 -->
    <g transform="translate(32 110)">
      <g>
        <rect width="92" height="32" rx="8" fill="#2563EB" />
        <text x="46" y="21" text-anchor="middle" fill="#fff" font-size="11" font-weight="800">전체 143</text>
      </g>
      <g transform="translate(104 0)">
        <rect width="92" height="32" rx="8" fill="#F5F5F5" />
        <text x="46" y="21" text-anchor="middle" fill="#737373" font-size="11" font-weight="700">클래식 55</text>
      </g>
      <g transform="translate(208 0)">
        <rect width="120" height="32" rx="8" fill="#F5F5F5" />
        <text x="60" y="21" text-anchor="middle" fill="#737373" font-size="11" font-weight="700">컨템포러리 43</text>
      </g>
      <g transform="translate(340 0)">
        <rect width="92" height="32" rx="8" fill="#F5F5F5" />
        <text x="46" y="21" text-anchor="middle" fill="#737373" font-size="11" font-weight="700">뉴에라 45</text>
      </g>
      <g transform="translate(444 0)">
        <rect width="572" height="32" rx="8" fill="#fff" stroke="#D4D4D4" />
        <text x="16" y="21" fill="#A3A3A3" font-size="11">이름·재료 검색</text>
      </g>
    </g>

    <!-- 카드 그리드 — 2 columns, gap 16 -->
    <g transform="translate(32 162)">
      <!-- 카드 1: 올드 패션드 -->
      <g>
        <rect width="500" height="240" rx="14" fill="#fff" stroke="#E5E5E5" />
        <g transform="translate(22 28)">
          <text fill="#262626" font-size="18" font-weight="800">올드 패션드</text>
          <text y="22" fill="#A3A3A3" font-size="11" font-weight="600">Old Fashioned</text>
        </g>
        <text x="22" y="92" fill="#737373" font-size="12">버번 위스키에 비터스와 약간의 설탕, 오렌지 필.</text>

        <g transform="translate(22 110)">
          <rect width="78" height="22" rx="11" fill="#F5F5F5" />
          <text x="39" y="15" text-anchor="middle" fill="#525252" font-size="10" font-weight="800">IBA 클래식</text>
          <g transform="translate(86 0)">
            <rect width="48" height="22" rx="11" fill="#DBEAFE" />
            <text x="24" y="15" text-anchor="middle" fill="#1D4ED8" font-size="10" font-weight="800">스터</text>
          </g>
          <g transform="translate(142 0)">
            <rect width="68" height="22" rx="11" fill="#FEF3C7" />
            <text x="34" y="15" text-anchor="middle" fill="#B45309" font-size="10" font-weight="800">ABV 32%</text>
          </g>
        </g>

        <text x="22" y="158" fill="#737373" font-size="11">🥃 올드 패션드 잔  ·  🌿 오렌지 필</text>

        <g transform="translate(22 174)">
          <rect width="456" height="48" rx="6" fill="#FAFAF9" />
          <text x="14" y="20" fill="#525252" font-size="11">버번 위스키</text>
          <text x="442" y="20" text-anchor="end" fill="#A3A3A3" font-size="11">60ml</text>
          <text x="14" y="38" fill="#525252" font-size="11">앙고스투라 비터스</text>
          <text x="442" y="38" text-anchor="end" fill="#A3A3A3" font-size="11">2dash</text>
        </g>
      </g>

      <!-- 카드 2: 맨해튼 -->
      <g transform="translate(516 0)">
        <rect width="500" height="240" rx="14" fill="#fff" stroke="#E5E5E5" />
        <g transform="translate(22 28)">
          <text fill="#262626" font-size="18" font-weight="800">맨해튼</text>
          <text y="22" fill="#A3A3A3" font-size="11" font-weight="600">Manhattan</text>
        </g>
        <text x="22" y="92" fill="#737373" font-size="12">라이 위스키와 스위트 베르무트의 고전적인 균형.</text>

        <g transform="translate(22 110)">
          <rect width="78" height="22" rx="11" fill="#F5F5F5" />
          <text x="39" y="15" text-anchor="middle" fill="#525252" font-size="10" font-weight="800">IBA 클래식</text>
          <g transform="translate(86 0)">
            <rect width="48" height="22" rx="11" fill="#DBEAFE" />
            <text x="24" y="15" text-anchor="middle" fill="#1D4ED8" font-size="10" font-weight="800">스터</text>
          </g>
          <g transform="translate(142 0)">
            <rect width="68" height="22" rx="11" fill="#FEF3C7" />
            <text x="34" y="15" text-anchor="middle" fill="#B45309" font-size="10" font-weight="800">ABV 30%</text>
          </g>
        </g>

        <text x="22" y="158" fill="#737373" font-size="11">🍸 쿠페  ·  🍒 체리</text>

        <g transform="translate(22 174)">
          <rect width="456" height="48" rx="6" fill="#FAFAF9" />
          <text x="14" y="20" fill="#525252" font-size="11">라이 위스키</text>
          <text x="442" y="20" text-anchor="end" fill="#A3A3A3" font-size="11">50ml</text>
          <text x="14" y="38" fill="#525252" font-size="11">스위트 베르무트</text>
          <text x="442" y="38" text-anchor="end" fill="#A3A3A3" font-size="11">20ml</text>
        </g>
      </g>

      <!-- 카드 3: 네그로니 -->
      <g transform="translate(0 256)">
        <rect width="500" height="240" rx="14" fill="#fff" stroke="#E5E5E5" />
        <g transform="translate(22 28)">
          <text fill="#262626" font-size="18" font-weight="800">네그로니</text>
          <text y="22" fill="#A3A3A3" font-size="11" font-weight="600">Negroni</text>
        </g>
        <text x="22" y="92" fill="#737373" font-size="12">진·캄파리·스위트 베르무트 1:1:1의 쌉쌀한 정통.</text>

        <g transform="translate(22 110)">
          <rect width="78" height="22" rx="11" fill="#F5F5F5" />
          <text x="39" y="15" text-anchor="middle" fill="#525252" font-size="10" font-weight="800">IBA 클래식</text>
          <g transform="translate(86 0)">
            <rect width="48" height="22" rx="11" fill="#DBEAFE" />
            <text x="24" y="15" text-anchor="middle" fill="#1D4ED8" font-size="10" font-weight="800">스터</text>
          </g>
          <g transform="translate(142 0)">
            <rect width="68" height="22" rx="11" fill="#FEF3C7" />
            <text x="34" y="15" text-anchor="middle" fill="#B45309" font-size="10" font-weight="800">ABV 24%</text>
          </g>
        </g>

        <text x="22" y="158" fill="#737373" font-size="11">🥃 올드 패션드 잔  ·  🍊 오렌지 필</text>

        <g transform="translate(22 174)">
          <rect width="456" height="48" rx="6" fill="#FAFAF9" />
          <text x="14" y="20" fill="#525252" font-size="11">진</text>
          <text x="442" y="20" text-anchor="end" fill="#A3A3A3" font-size="11">30ml</text>
          <text x="14" y="38" fill="#525252" font-size="11">캄파리</text>
          <text x="442" y="38" text-anchor="end" fill="#A3A3A3" font-size="11">30ml</text>
        </g>
      </g>

      <!-- 카드 4: 에스프레소 마티니 -->
      <g transform="translate(516 256)">
        <rect width="500" height="240" rx="14" fill="#fff" stroke="#E5E5E5" />
        <g transform="translate(22 28)">
          <text fill="#262626" font-size="18" font-weight="800">에스프레소 마티니</text>
          <text y="22" fill="#A3A3A3" font-size="11" font-weight="600">Espresso Martini</text>
        </g>
        <text x="22" y="92" fill="#737373" font-size="12">보드카·커피 리큐어·에스프레소의 어른 디저트.</text>

        <g transform="translate(22 110)">
          <rect width="78" height="22" rx="11" fill="#F5F5F5" />
          <text x="39" y="15" text-anchor="middle" fill="#525252" font-size="10" font-weight="800">IBA 뉴에라</text>
          <g transform="translate(86 0)">
            <rect width="56" height="22" rx="11" fill="#DBEAFE" />
            <text x="28" y="15" text-anchor="middle" fill="#1D4ED8" font-size="10" font-weight="800">셰이크</text>
          </g>
          <g transform="translate(150 0)">
            <rect width="68" height="22" rx="11" fill="#FEF3C7" />
            <text x="34" y="15" text-anchor="middle" fill="#B45309" font-size="10" font-weight="800">ABV 18%</text>
          </g>
        </g>

        <text x="22" y="158" fill="#737373" font-size="11">🍸 마티니  ·  ☕ 커피 빈 3알</text>

        <g transform="translate(22 174)">
          <rect width="456" height="48" rx="6" fill="#FAFAF9" />
          <text x="14" y="20" fill="#525252" font-size="11">보드카</text>
          <text x="442" y="20" text-anchor="end" fill="#A3A3A3" font-size="11">50ml</text>
          <text x="14" y="38" fill="#525252" font-size="11">에스프레소</text>
          <text x="442" y="38" text-anchor="end" fill="#A3A3A3" font-size="11">30ml</text>
        </g>
      </g>
    </g>
  </g>
</svg>
